<svg xmlns="http://www.w3.org/2000/svg" width="17.606" height="17.92" viewBox="0 0 17.606 17.92">
  <path id="Shape_11" data-name="Shape 11" d="M288.431,28.918a6.962,6.962,0,0,1-2.663-.625,17.014,17.014,0,0,1-5.828-4.173,17.247,17.247,0,0,1-2.961-4.331,10.526,10.526,0,0,1-.879-2.545,4.213,4.213,0,0,1-.02-1.717,2.1,2.1,0,0,1,.563-1.032q.683-.693,1.37-1.38a1.276,1.276,0,0,1,1.887-.027c.726.732,1.457,1.459,2.165,2.21a1.308,1.308,0,0,1-.036,1.948c-.411.429-.832.848-1.251,1.27-.15.152-.156.178-.071.381a8.261,8.261,0,0,0,1.326,2.066,12.862,12.862,0,0,0,2.882,2.642c.318.206.663.369,1,.554.119.067.2.006.281-.076.421-.432.842-.865,1.265-1.294a1.27,1.27,0,0,1,1.97,0q1.03,1.042,2.054,2.09a1.524,1.524,0,0,1,.439.779,1.262,1.262,0,0,1-.332,1.13c-.323.356-.673.688-1.009,1.033-.173.176-.33.372-.515.535a2.284,2.284,0,0,1-1.582.563Zm3.387-9.8a7.084,7.084,0,0,0-5.685-6.232c-.179-.034-.361-.053-.542-.082a.9.9,0,0,1-.778-.96.907.907,0,0,1,.973-.847,7.533,7.533,0,0,1,1.9.427,8.807,8.807,0,0,1,5.773,6.624,7.349,7.349,0,0,1,.139.887.9.9,0,0,1-.773,1.005,1.025,1.025,0,0,1-.109.006A.893.893,0,0,1,291.818,19.12Zm-3.129.059a3.887,3.887,0,0,0-3.084-3.171.913.913,0,0,1,.239-1.81,5.731,5.731,0,0,1,4.613,4.7.895.895,0,1,1-1.768.276Z" transform="translate(-276 -10.999)" fill="#fff"/>
</svg>
