<svg xmlns="http://www.w3.org/2000/svg" width="18.707" height="13.439" viewBox="0 0 18.707 13.439">
  <path id="Shape_12" data-name="Shape 12" d="M508.712,28.918l6.264-6.75c.69.618,1.368,1.222,2.043,1.832.463.418.526.417.981,0,.675-.61,1.354-1.212,2.051-1.836l6.265,6.749Zm-.553-12.875,6.215,5.581L508.16,28.33Zm12.495,5.582,6.212-5.581V28.321ZM517.335,23.2q-4.205-3.792-8.418-7.573c-.031-.028-.06-.061-.142-.147h17.467c-.084.089-.129.144-.18.19q-4.181,3.758-8.362,7.519a.3.3,0,0,1-.19.1A.269.269,0,0,1,517.335,23.2Z" transform="translate(-508.16 -15.479)" fill="#fff"/>
</svg>
